<?xml version="1.0" encoding="UTF-8"?>
<svg width="403px" height="89px" viewBox="0 0 403 89" version="1.1" xmlns="http://www.w3.org/2000/svg" xmlns:xlink="http://www.w3.org/1999/xlink">
    <title>logo_with_tag_AW</title>
    <g id="Assets" stroke="none" stroke-width="1" fill="none" fill-rule="evenodd">
        <g id="logo_with_tag_AW" fill="#000000" fill-rule="nonzero">
            <path d="M13.393005,35.211388 C13.681106,41.25969 17.425308,43.204087 23.113708,43.204087 C27.146507,43.204087 31.322708,41.763589 31.322708,37.94719 C31.322708,33.411088 23.978004,32.546784 16.561508,30.458985 C9.216804,28.370591 1.512207,25.058091 1.512207,15.625489 C1.512207,4.392586 12.816906,-1.1e-05 22.465805,-1.1e-05 C32.690903,-1.1e-05 42.987808,4.968686 43.059509,16.561486 L29.666504,16.561486 C29.882309,11.881287 25.490204,10.369088 21.385704,10.369088 C18.505302,10.369088 14.905205,11.376889 14.905205,14.761185 C14.905205,18.721688 22.321709,19.441887 29.810509,21.529785 C37.227005,23.618088 44.715805,27.074684 44.715805,36.363289 C44.715805,49.396484 33.626907,53.572685 22.321709,53.572685 C10.512707,53.572685 0.071705,48.388183 4.00000002e-06,35.211387 L13.393005,35.211387 L13.393005,35.211388 Z M48.831009,1.080086 L62.224106,1.080086 L62.224106,19.801689 L79.865708,19.801689 L79.865708,1.080086 L93.258805,1.080086 L93.258805,52.492584 L79.865708,52.492584 L79.865708,31.322685 L62.224106,31.322685 L62.224106,52.492584 L48.831009,52.492584 L48.831009,1.080086 Z M122.729004,-1.1e-05 C138.930603,-1.1e-05 148.075195,11.881287 148.075195,26.786591 C148.075195,41.691895 138.930603,53.572686 122.729004,53.572686 C106.527802,53.572686 97.382797,41.691888 97.382797,26.786591 C97.382797,11.881294 106.527802,-1.1e-05 122.729004,-1.1e-05 Z M122.729004,42.051689 C131.370102,42.051689 134.682098,34.418884 134.682098,26.78659 C134.682098,19.153785 131.370102,11.520988 122.729004,11.520988 C114.088303,11.520988 110.776306,19.153785 110.776306,26.78659 C110.776306,34.418884 114.088303,42.051689 122.729004,42.051689 Z M201.891602,52.492584 L188.498505,52.492584 L181.441895,17.065384 L181.297806,17.065384 L174.241196,52.492584 L160.631806,52.492584 L146.734803,1.080086 L160.1279,1.080086 L167.400803,38.667488 L167.544403,38.667488 L175.105408,1.080086 L187.706497,1.080086 L195.267105,38.667488 L195.411102,38.667488 L202.683593,1.080086 L216.076598,1.080086 L201.891602,52.492584 Z M223.146912,40.53949 C223.57959,45.291985 227.178711,47.019989 231.57132,47.019989 C234.666993,47.019989 240.068299,46.371986 239.852509,42.123489 C239.635712,37.803184 233.659089,37.299286 227.682587,35.931083 C221.635193,34.635185 215.730408,32.475089 215.730408,24.913986 C215.730408,16.777786 224.515106,14.257286 231.283203,14.257286 C238.915985,14.257286 245.829101,17.425789 246.836883,25.706489 L238.268493,25.706489 C237.54779,21.817787 234.307586,20.737785 230.708007,20.737785 C228.330993,20.737785 223.938903,21.313888 223.938903,24.554184 C223.938903,28.586388 229.987304,29.16259 236.036101,30.530685 C242.012694,31.898887 248.061492,34.059089 248.061492,41.403785 C248.061492,50.260185 239.131804,53.500884 231.426696,53.500884 C222.066894,53.500884 215.083007,49.324187 214.939391,40.539489 L223.146912,40.539489 L223.146912,40.53949 Z M247.577087,15.265587 L253.770507,15.265587 L253.770507,4.104488 L261.978484,4.104488 L261.978484,15.265586 L269.394988,15.265586 L269.394988,21.386184 L261.978484,21.386184 L261.978484,41.259689 C261.978484,44.643989 262.2666,46.371986 265.938903,46.371986 C267.090301,46.371986 268.242583,46.371986 269.394988,46.083984 L269.394988,52.42089 C267.594207,52.564384 265.867583,52.852485 264.067382,52.852485 C255.497985,52.852485 253.914001,49.540489 253.770507,43.347587 L253.770507,21.386185 L247.577087,21.386185 L247.577087,15.265587 L247.577087,15.265587 Z M305.988708,52.492584 L297.922302,52.492584 L297.922302,47.30809 L297.779785,47.30809 C295.762207,51.052688 291.299316,53.500885 287.193786,53.500885 C277.473083,53.500885 273.297302,48.604485 273.297302,38.883286 L273.297302,15.265587 L281.506317,15.265587 L281.506317,38.091286 C281.506317,44.64399 284.17041,47.019989 288.635193,47.019989 C295.475098,47.019989 297.779785,42.627884 297.779785,36.867187 L297.779785,15.265587 L305.988708,15.265587 L305.988708,52.492584 Z M346.691895,52.492584 L338.91449,52.492584 L338.91449,47.452087 L338.769989,47.452087 C336.609802,51.700683 331.930084,53.500885 327.250488,53.500885 C315.512207,53.500885 309.824707,44.788086 309.824707,33.626884 C309.824707,20.162086 317.816895,14.257286 325.953583,14.257286 C330.633301,14.257286 335.818787,15.98529 338.338318,20.08979 L338.48291,20.08979 L338.48291,1.080086 L346.691895,1.080086 L346.691895,52.492584 L346.691895,52.492584 Z M328.330505,47.019989 C335.674316,47.019989 338.769989,40.323685 338.769989,33.843185 C338.769989,25.634285 334.811005,20.737785 328.473083,20.737785 C320.769989,20.737785 318.033691,27.57859 318.033691,34.274887 C318.033691,40.683586 321.201599,47.019989 328.330505,47.019989 Z M352.832489,1.080086 L361.041504,1.080086 L361.041504,8.856888 L352.832489,8.856888 L352.832489,1.080086 Z M352.832489,15.265587 L361.041504,15.265587 L361.041504,52.492584 L352.832489,52.492584 L352.832489,15.265587 Z M365.238708,33.843185 C365.238708,22.466285 372.080505,14.257286 384.033691,14.257286 C395.986785,14.257286 402.826599,22.466286 402.826599,33.843185 C402.826599,45.291984 395.986786,53.500885 384.033691,53.500885 C372.080505,53.500885 365.238708,45.291985 365.238708,33.843185 Z M394.617584,33.843185 C394.617584,27.434486 391.37738,20.737785 384.033691,20.737785 C376.687988,20.737785 373.447692,27.434486 373.447692,33.843185 C373.447692,40.323684 376.687987,47.019989 384.033691,47.019989 C391.37738,47.019989 394.617584,40.323685 394.617584,33.843185 Z M0.916542,73.424103 L0.916542,70.12381 L15.541542,70.12381 L15.541542,73.424103 L10.191444,73.424103 L10.191444,87.973908 L6.266151,87.973908 L6.266151,73.424103 L0.916542,73.424103 Z M23.391151,70.12381 L23.391151,76.973908 L30.616249,76.973908 L30.616249,70.12381 L34.541054,70.12381 L34.541054,87.973908 L30.616249,87.973908 L30.616249,80.273713 L23.391151,80.273713 L23.391151,87.973908 L19.466346,87.973908 L19.466346,70.12381 L23.391151,70.12381 Z M53.216347,70.12381 L53.216347,73.424103 L43.791054,73.424103 L43.791054,77.24881 L52.440956,77.24881 L52.440956,80.299103 L43.791054,80.299103 L43.791054,84.674103 L53.416054,84.674103 L53.416054,87.973908 L39.866249,87.973908 L39.866249,70.12381 L53.216347,70.12381 Z M70.690956,70.12381 L70.690956,76.973908 L77.916054,76.973908 L77.916054,70.12381 L81.840866,70.12381 L81.840866,87.973908 L77.916054,87.973908 L77.916054,80.273713 L70.690956,80.273713 L70.690956,87.973908 L66.766151,87.973908 L66.766151,70.12381 L70.690956,70.12381 Z M86.990768,75.411407 C87.391159,74.269805 87.965866,73.273712 88.715866,72.424102 C89.465866,71.574004 90.386764,70.9075 91.478561,70.424102 C92.56987,69.940704 93.799362,69.699004 95.166061,69.699004 C96.549362,69.699004 97.782272,69.940703 98.865768,70.424102 C99.949264,70.907501 100.865768,71.574004 101.615768,72.424102 C102.365768,73.273711 102.940963,74.269805 103.340866,75.411407 C103.740769,76.553009 103.940964,77.790802 103.940964,79.123809 C103.940964,80.424102 103.740769,81.636504 103.340866,82.761504 C102.940963,83.886504 102.365768,84.865508 101.615768,85.699004 C100.865768,86.5325 99.949264,87.186309 98.865768,87.661406 C97.782272,88.136503 96.549362,88.373808 95.166061,88.373808 C93.799362,88.373808 92.56987,88.136503 91.478561,87.661406 C90.386764,87.186308 89.465866,86.5325 88.715866,85.699004 C87.965866,84.865508 87.391159,83.886504 86.990768,82.761504 C86.590866,81.636504 86.391159,80.424102 86.391159,79.123809 C86.391159,77.790802 86.590866,76.553009 86.990768,75.411407 Z M90.578659,81.31131 C90.753464,82.019806 91.032272,82.657501 91.416061,83.223908 C91.799362,83.790803 92.299362,84.244904 92.916061,84.586213 C93.532272,84.92801 94.282272,85.098908 95.166061,85.098908 C96.049362,85.098908 96.799362,84.92801 97.416061,84.586213 C98.032272,84.244904 98.532272,83.790803 98.916061,83.223908 C99.299362,82.657502 99.578659,82.019806 99.753463,81.31131 C99.928268,80.603302 100.016158,79.87381 100.016158,79.12381 C100.016158,78.340607 99.928267,77.582306 99.753463,76.848908 C99.578659,76.11551 99.299361,75.461213 98.916061,74.886506 C98.532272,74.311311 98.032272,73.853303 97.416061,73.511506 C96.799362,73.170197 96.049362,72.998811 95.166061,72.998811 C94.282272,72.998811 93.532272,73.170198 92.916061,73.511506 C92.299362,73.853303 91.799362,74.311311 91.416061,74.886506 C91.032272,75.461213 90.753463,76.11551 90.578659,76.848908 C90.403366,77.582306 90.315964,78.340607 90.315964,79.12381 C90.315964,79.87381 90.403366,80.603302 90.578659,81.31131 Z M114.015671,70.12381 L118.190476,82.398712 L118.240769,82.398712 L122.190476,70.12381 L127.715867,70.12381 L127.715867,87.973908 L124.040574,87.973908 L124.040574,75.324006 L123.990769,75.324006 L119.615769,87.973908 L116.590867,87.973908 L112.215867,75.449006 L112.165574,75.449006 L112.165574,87.973908 L108.490769,87.973908 L108.490769,70.12381 L114.015671,70.12381 Z M146.391159,70.12381 L146.391159,73.424103 L136.965866,73.424103 L136.965866,77.24881 L145.615768,77.24881 L145.615768,80.299103 L136.965866,80.299103 L136.965866,84.674103 L146.590866,84.674103 L146.590866,87.973908 L133.041061,87.973908 L133.041061,70.12381 L146.391159,70.12381 Z M159.765671,75.411407 C160.166062,74.269805 160.740769,73.273712 161.490769,72.424102 C162.240769,71.574004 163.161667,70.9075 164.253464,70.424102 C165.344773,69.940704 166.574265,69.699004 167.940964,69.699004 C169.324265,69.699004 170.557175,69.940703 171.640671,70.424102 C172.724167,70.907501 173.640671,71.574004 174.390671,72.424102 C175.140671,73.273711 175.715866,74.269805 176.115769,75.411407 C176.515672,76.553009 176.715867,77.790802 176.715867,79.123809 C176.715867,80.424102 176.515672,81.636504 176.115769,82.761504 C175.715866,83.886504 175.140671,84.865508 174.390671,85.699004 C173.640671,86.5325 172.724167,87.186309 171.640671,87.661406 C170.557175,88.136503 169.324265,88.373808 167.940964,88.373808 C166.574265,88.373808 165.344773,88.136503 164.253464,87.661406 C163.161667,87.186308 162.240769,86.5325 161.490769,85.699004 C160.740769,84.865508 160.166062,83.886504 159.765671,82.761504 C159.365769,81.636504 159.166062,80.424102 159.166062,79.123809 C159.166062,77.790802 159.365768,76.553009 159.765671,75.411407 Z M163.353561,81.31131 C163.528366,82.019806 163.807174,82.657501 164.190963,83.223908 C164.574264,83.790803 165.074264,84.244904 165.690963,84.586213 C166.307174,84.92801 167.057174,85.098908 167.940963,85.098908 C168.824264,85.098908 169.574264,84.92801 170.190963,84.586213 C170.807174,84.244904 171.307174,83.790803 171.690963,83.223908 C172.074264,82.657502 172.353561,82.019806 172.528365,81.31131 C172.70317,80.603302 172.79106,79.87381 172.79106,79.12381 C172.79106,78.340607 172.703169,77.582306 172.528365,76.848908 C172.353561,76.11551 172.074263,75.461213 171.690963,74.886506 C171.307174,74.311311 170.807174,73.853303 170.190963,73.511506 C169.574264,73.170197 168.824264,72.998811 167.940963,72.998811 C167.057174,72.998811 166.307174,73.170198 165.690963,73.511506 C165.074264,73.853303 164.574264,74.311311 164.190963,74.886506 C163.807174,75.461213 163.528365,76.11551 163.353561,76.848908 C163.178268,77.582306 163.090866,78.340607 163.090866,79.12381 C163.090866,79.87381 163.178268,80.603302 163.353561,81.31131 Z M193.815475,70.12381 L193.815475,73.424103 L185.190475,73.424103 L185.190475,77.549103 L192.665573,77.549103 L192.665573,80.598908 L185.190475,80.598908 L185.190475,87.973908 L181.26567,87.973908 L181.26567,70.12381 L193.815475,70.12381 Z M219.340363,70.12381 L219.340363,73.424103 L210.715363,73.424103 L210.715363,77.549103 L218.190461,77.549103 L218.190461,80.598908 L210.715363,80.598908 L210.715363,87.973908 L206.790558,87.973908 L206.790558,70.12381 L219.340363,70.12381 Z M231.015167,70.12381 L237.689972,87.973908 L233.615265,87.973908 L232.265167,83.99881 L225.590362,83.99881 L224.189971,87.973908 L220.240264,87.973908 L226.990264,70.12381 L231.015167,70.12381 L231.015167,70.12381 Z M231.240265,81.074005 L228.990265,74.523712 L228.939972,74.523712 L226.615265,81.074005 L231.240265,81.074005 Z M244.115265,83.574005 C244.331574,83.990509 244.619171,84.3284 244.97757,84.586212 C245.335968,84.845001 245.756379,85.036407 246.240265,85.161407 C246.723175,85.286407 247.223175,85.348907 247.740265,85.348907 C248.090363,85.348907 248.465363,85.320098 248.865265,85.261505 C249.265167,85.2034 249.640167,85.090607 249.990265,84.924103 C250.340363,84.757599 250.631378,84.528107 250.865265,84.236603 C251.098175,83.945099 251.215363,83.574005 251.215363,83.12381 C251.215363,82.6409 251.061066,82.24881 250.752472,81.949005 C250.443878,81.648712 250.04007,81.398712 249.54007,81.199006 C249.04007,80.99881 248.473175,80.824005 247.840363,80.674103 C247.206574,80.523712 246.564972,80.357697 245.91507,80.174103 C245.248566,80.007599 244.598175,79.803009 243.965363,79.56131 C243.331574,79.320099 242.765168,79.007599 242.265168,78.62381 C241.765168,78.240509 241.360871,77.761505 241.052766,77.18631 C240.744172,76.611603 240.590364,75.915802 240.590364,75.098908 C240.590364,74.182404 240.785676,73.386506 241.177766,72.711213 C241.568879,72.036408 242.081575,71.473908 242.715364,71.023713 C243.348176,70.574006 244.064973,70.24051 244.865266,70.023713 C245.665071,69.807404 246.465364,69.699006 247.265168,69.699006 C248.198273,69.699006 249.09427,69.80301 249.952668,70.011506 C250.811066,70.220002 251.573273,70.557404 252.240266,71.023713 C252.90677,71.49051 253.436067,72.086213 253.827668,72.811311 C254.219269,73.536409 254.41507,74.415803 254.41507,75.449006 L250.615265,75.449006 C250.581574,74.915803 250.469269,74.473908 250.277863,74.123811 C250.085968,73.773713 249.831574,73.498811 249.515168,73.299104 C249.198273,73.098909 248.835969,72.957307 248.427766,72.873811 C248.019075,72.790803 247.573274,72.748811 247.090364,72.748811 C246.773469,72.748811 246.456575,72.782502 246.140169,72.848909 C245.823274,72.915804 245.535677,73.032503 245.277864,73.199006 C245.019075,73.365511 244.806673,73.574007 244.640169,73.824007 C244.473177,74.074007 244.390169,74.390902 244.390169,74.773714 C244.390169,75.123812 244.456575,75.407503 244.590364,75.623812 C244.723176,75.840609 244.985872,76.040804 245.377473,76.22391 C245.769075,76.407504 246.311067,76.590609 247.002473,76.773715 C247.693879,76.957309 248.598176,77.190707 249.715364,77.47391 C250.048372,77.540805 250.510774,77.66141 251.102571,77.836215 C251.69388,78.011508 252.28177,78.290805 252.865266,78.674106 C253.448274,79.057407 253.952668,79.570102 254.377473,80.211215 C254.802766,80.853305 255.015168,81.674106 255.015168,82.674106 C255.015168,83.490512 254.856477,84.248813 254.54007,84.949008 C254.223175,85.648715 253.752472,86.253207 253.127472,86.761508 C252.502472,87.269809 251.72757,87.665805 250.802765,87.949008 C249.877472,88.232211 248.806671,88.373813 247.590363,88.373813 C246.606476,88.373813 245.652863,88.252719 244.72757,88.011508 C243.802765,87.769809 242.985871,87.390903 242.277863,86.873813 C241.568879,86.3577 241.006379,85.699006 240.590363,84.898715 C240.173371,84.09891 239.973175,83.148715 239.990265,82.049106 L243.79007,82.049106 C243.79007,82.648712 243.898468,83.157501 244.115265,83.574005 Z M263.140656,70.12381 L263.140656,76.973908 L270.365265,76.973908 L270.365265,70.12381 L274.29007,70.12381 L274.29007,87.973908 L270.365265,87.973908 L270.365265,80.273713 L263.140656,80.273713 L263.140656,87.973908 L259.214386,87.973908 L259.214386,70.12381 L263.140656,70.12381 Z M283.541046,70.12381 L283.541046,87.973908 L279.615265,87.973908 L279.615265,70.12381 L283.541046,70.12381 Z M288.69046,75.411407 C289.090851,74.269805 289.666046,73.273712 290.416046,72.424102 C291.166046,71.574004 292.085968,70.9075 293.177765,70.424102 C294.269562,69.940704 295.499054,69.699004 296.865265,69.699004 C298.249054,69.699004 299.482453,69.940703 300.56546,70.424102 C301.648467,70.907501 302.56546,71.574004 303.31546,72.424102 C304.06546,73.273711 304.640655,74.269805 305.041046,75.411407 C305.44046,76.553009 305.640655,77.790802 305.640655,79.123809 C305.640655,80.424102 305.44046,81.636504 305.041046,82.761504 C304.640655,83.886504 304.06546,84.865508 303.31546,85.699004 C302.56546,86.5325 301.648468,87.186309 300.56546,87.661406 C299.482452,88.136503 298.249054,88.373808 296.865265,88.373808 C295.499054,88.373808 294.269562,88.136503 293.177765,87.661406 C292.085968,87.186309 291.166046,86.5325 290.416046,85.699004 C289.666046,84.865508 289.090851,83.886504 288.69046,82.761504 C288.291046,81.636504 288.090851,80.424102 288.090851,79.123809 C288.090851,77.790802 288.291046,76.553009 288.69046,75.411407 Z M292.278351,81.31131 C292.453156,82.019806 292.732453,82.657501 293.115265,83.223908 C293.499054,83.790803 293.999054,84.244904 294.615265,84.586213 C295.232453,84.92801 295.982453,85.098908 296.865265,85.098908 C297.749054,85.098908 298.499054,84.92801 299.115265,84.586213 C299.732453,84.244904 300.232453,83.790803 300.615265,83.223908 C300.999054,82.657502 301.278351,82.019806 301.453156,81.31131 C301.627961,80.603302 301.715851,79.87381 301.715851,79.12381 C301.715851,78.340607 301.62796,77.582306 301.453156,76.848908 C301.278352,76.11551 300.999054,75.461213 300.615265,74.886506 C300.232453,74.311311 299.732453,73.853303 299.115265,73.511506 C298.499054,73.170197 297.749054,72.998811 296.865265,72.998811 C295.982453,72.998811 295.232453,73.170198 294.615265,73.511506 C293.999054,73.853303 293.499054,74.311311 293.115265,74.886506 C292.732453,75.461213 292.453156,76.11551 292.278351,76.848908 C292.103546,77.582306 292.015656,78.340607 292.015656,79.12381 C292.015656,79.87381 292.103546,80.603302 292.278351,81.31131 Z M314.089874,70.12381 L321.540069,82.098908 L321.589874,82.098908 L321.589874,70.12381 L325.264679,70.12381 L325.264679,87.973908 L321.339874,87.973908 L313.915069,76.023713 L313.865264,76.023713 L313.865264,87.973908 L310.189483,87.973908 L310.189483,70.12381 L314.089874,70.12381 Z M351.965851,70.12381 L351.965851,73.424103 L343.340851,73.424103 L343.340851,77.549103 L350.81546,77.549103 L350.81546,80.598908 L343.340851,80.598908 L343.340851,87.973908 L339.41507,87.973908 L339.41507,70.12381 L351.965851,70.12381 Z M360.04007,70.12381 L360.04007,87.973908 L356.114289,87.973908 L356.114289,70.12381 L360.04007,70.12381 Z M369.29007,70.12381 L369.29007,84.674103 L377.989289,84.674103 L377.989289,87.973908 L365.364289,87.973908 L365.364289,70.12381 L369.29007,70.12381 Z M387.589874,70.12381 L391.764679,82.398712 L391.814484,82.398712 L395.764679,70.12381 L401.29007,70.12381 L401.29007,87.973908 L397.615265,87.973908 L397.615265,75.324006 L397.564484,75.324006 L393.189484,87.973908 L390.16507,87.973908 L385.79007,75.449006 L385.740265,75.449006 L385.740265,87.973908 L382.064484,87.973908 L382.064484,70.12381 L387.589874,70.12381 Z" id="Shape"></path>
        </g>
    </g>
</svg>
